Coordinates
version=1
nRows=10
nColumns=55
inDegrees=yes

Units are S.I. units (second, meters, Newtons, ...)
If the header above contains a line with 'inDegrees', this indicates whether rotational values are in degrees (yes) or radians (no).

endheader
time	pelvis_tilt	pelvis_list	pelvis_rotation	pelvis_tx	pelvis_ty	pelvis_tz	hip_flexion_r	hip_adduction_r	hip_rotation_r	knee_angle_r	knee_angle_r_beta	ankle_angle_r	subtalar_angle_r	mtp_angle_r	hip_flexion_l	hip_adduction_l	hip_rotation_l	knee_angle_l	knee_angle_l_beta	ankle_angle_l	subtalar_angle_l	mtp_angle_l	lumbar_extension	lumbar_bending	lumbar_rotation	torso_tx	torso_ty	torso_tz	arm_flex_r	arm_add_r	arm_rot_r	shoulder_rx	shoulder_ry	shoulder_rz	elbow_flex_r	pro_sup_r	wrist_flex_r	wrist_dev_r	arm_flex_l	arm_add_l	arm_rot_l	shoulder_lx	shoulder_ly	shoulder_lz	elbow_flex_l	pro_sup_l	wrist_flex_l	wrist_dev_l	neck_extension	neck_bending	neck_rotation	head_tx	head_ty	head_tz
      8.64000000	      9.84220445	      2.53336766	      2.19700263	      0.61257339	      1.02969478	     -0.23632777	     23.18516596	     -9.81398338	    -10.29986556	     37.54275075	      0.65524461	      1.11597331	     -4.12521032	     -3.08010288	    -18.25178549	      1.30910227	     -6.13561387	      2.48230952	      0.04332447	     13.23315860	     16.32739963	      2.25753097	    -12.15016675	     -5.20842996	     -3.59782245	      0.07368820	      0.01296676	     -0.01747230	    -15.62885207	    -10.98918664	     34.87461981	     -0.02967166	     -0.04464122	     -0.00453957	     10.02903029	     30.83850191	    -17.05736561	    -32.72777707	      9.70337197	    -17.47836261	     51.39746285	     -0.01890218	     -0.04539833	      0.00980708	     18.89849945	     14.09544066	     -3.85789754	    -15.52684749	      3.94556688	      2.25433442	     -2.34353045	      0.01177594	      0.02225585	     -0.00191072
      8.65000000	      9.59408603	      3.19516946	      1.78790856	      0.61150370	      1.02773999	     -0.23545385	     23.19921978	    -10.08927291	    -10.20713811	     33.22069331	      0.57981048	      1.66377948	     -3.20575607	     -2.96541475	    -18.99877711	      2.06066919	     -6.11897317	      1.93992372	      0.03385806	     13.57260657	     17.15695248	      2.25404330	    -11.99569648	     -5.56932975	     -4.13109894	      0.07259924	      0.01338082	     -0.02112620	    -17.79756986	    -10.87986140	     34.93275596	     -0.01527641	     -0.04560908	     -0.00263246	      8.79923502	     30.53525193	    -16.90024091	    -31.90765375	     11.73348429	    -17.61474004	     51.07365877	     -0.02859083	     -0.04823271	      0.00979628	     19.71124349	     14.16181354	     -3.73277515	    -15.96896376	      4.32682786	      2.24617037	     -2.16863095	      0.01063240	      0.02243845	     -0.00283348
      8.66000000	     10.42252778	      1.09947908	      2.48622058	      0.61022241	      1.02861949	     -0.23788919	     18.64500965	     -7.25813384	    -11.20398283	     22.39402339	      0.39084944	     -0.91668128	      1.40893043	     -1.74341817	    -21.74573058	     -0.36178114	     -7.89335494	     -0.79952572	     -0.01395436	     11.75076718	     22.42213289	      2.96914069	    -12.53932514	     -3.52808101	     -3.96707936	      0.07578808	      0.01157878	     -0.01380866	    -16.89776824	    -10.13808623	     35.76859210	     -0.02513439	     -0.04292043	     -0.00231808	      7.01452308	     28.39402250	    -14.34510814	    -24.63935715	     10.84806519	    -18.54670591	     49.51413361	     -0.02220602	     -0.04612168	      0.01258306	     21.98936455	     14.47541185	     -3.11260749	    -19.27956945	      6.93460152	      2.46073172	     -0.95039722	      0.01618486	      0.02311411	     -0.00118888
      8.67000000	     10.65527179	      1.12413531	      2.56897648	      0.60838619	      1.02622254	     -0.23813207	     19.80653876	     -7.42310512	    -11.21944865	     22.01172376	      0.38417705	     -0.79216679	      1.41007266	     -1.75110396	    -22.60454979	     -0.42113289	     -7.91663796	     -0.61230855	     -0.01068680	     11.74434061	     22.44410205	      2.96831322	    -12.63317850	     -3.47667158	     -4.10679250	      0.07821066	      0.01209282	     -0.01276464	    -17.09420456	    -10.10333992	     35.77796850	     -0.02863906	     -0.04189535	     -0.00281855	      6.96610485	     28.38608404	    -14.33679657	    -24.60275305	     11.01002863	    -18.54601059	     49.48462211	     -0.01978927	     -0.04455185	      0.01214125	     22.03555505	     14.47679714	     -3.10591159	    -19.29995083	      6.93731594	      2.45753356	     -0.95081303	      0.01606762	      0.02352601	     -0.00119702
      8.68000000	     10.64025179	      1.73485320	      2.27334001	      0.60710926	      1.02377919	     -0.23758772	     20.42460397	     -7.90646552	    -11.26174842	     20.12648510	      0.35127343	     -0.00790287	      1.67381878	     -1.77717401	    -23.40078310	      0.22493541	     -7.97618599	     -0.73264216	     -0.01278702	     12.33660882	     22.82699129	      2.90566455	    -12.71660760	     -3.82614131	     -4.54883379	      0.07800221	      0.01270249	     -0.01551357	    -18.55682193	     -9.98588257	     35.84049297	     -0.01900520	     -0.04223129	     -0.00067709	      6.44123466	     28.27833043	    -14.24884258	    -24.18744397	     12.59589204	    -18.41467221	     49.17697736	     -0.02660578	     -0.04646964	      0.01159707	     22.68544654	     14.51525331	     -2.99704512	    -19.55178684	      7.00873895	      2.42092191	     -0.94697641	      0.01430798	      0.02375501	     -0.00185329
      8.69000000	     10.80305413	      1.77922544	      2.43291091	      0.60531262	      1.02182814	     -0.23773065	     21.36439366	     -7.96770692	    -11.25608890	     19.78020413	      0.34522969	      0.08739587	      1.70827623	     -1.78186896	    -24.17101193	      0.19748451	     -7.99568585	     -0.56977880	     -0.00994452	     12.32741152	     22.84690942	      2.90541844	    -12.72801975	     -3.81916909	     -4.64241651	      0.08026779	      0.01241630	     -0.01471808	    -18.65154588	     -9.98364691	     35.84502373	     -0.02317996	     -0.04100748	     -0.00097333	      6.41789597	     28.27358667	    -14.24297112	    -24.16518994	     12.72363309	    -18.42834809	     49.15137603	     -0.02288779	     -0.04442403	      0.01169964	     22.71766776	     14.51556796	     -2.99098831	    -19.56747723	      7.01684730	      2.42250631	     -0.94548611	      0.01407810	      0.02337907	     -0.00137602
      8.70000000	     10.89867198	      1.85820976	      2.53143062	      0.60373624	      1.01987177	     -0.23765456	     22.18574361	     -8.06611738	    -11.24540030	     19.40283242	      0.33864331	      0.19920353	      1.75527904	     -1.78745329	    -24.90077298	      0.13824860	     -8.01493365	     -0.42997903	     -0.00750455	     12.34021707	     22.87186715	      2.90268572	    -12.72634422	     -3.82851741	     -4.73711450	      0.08190805	      0.01209282	     -0.01418624	    -18.78849353	     -9.96470316	     35.85001366	     -0.02587052	     -0.03991412	     -0.00133746	      6.37975185	     28.26727595	    -14.23647929	    -24.13480300	     12.89977137	    -18.42763973	     49.11913039	     -0.02093458	     -0.04290325	      0.01219850	     22.78162476	     14.51899435	     -2.97971272	    -19.59015838	      7.03068907	      2.42181181	     -0.94470399	      0.01345532	      0.02337210	     -0.00112494
      8.71000000	     10.94232374	      1.95862845	      2.59734705	      0.60231840	      1.01808484	     -0.23737095	     22.86317775	     -8.11984420	    -11.24044110	     19.03748415	      0.33226678	      0.31400998	      1.81245939	     -1.79357702	    -25.57411879	      0.11766592	     -8.03142936	     -0.30817288	     -0.00537863	     12.36692260	     22.90065247	      2.89836924	    -12.68400408	     -3.84783062	     -4.84967178	      0.08319985	      0.01177455	     -0.01390816	    -18.95459725	     -9.93748261	     35.85442862	     -0.02771390	     -0.03893265	     -0.00146187	      6.33151102	     28.26028257	    -14.23028733	    -24.10110082	     13.14165295	    -18.42254746	     49.07817436	     -0.01916211	     -0.04156908	      0.01266629	     22.87172827	     14.52457746	     -2.96463187	    -19.61831514	      7.04793741	      2.41913108	     -0.94448292	      0.01269125	      0.02327093	     -0.00108912
      8.72000000	     10.91914873	      2.09300918	      2.64255443	      0.60113457	      1.01621130	     -0.23702262	     23.42428689	     -8.13026153	    -11.24146078	     18.68840437	      0.32617419	      0.42940306	      1.87684916	     -1.80012722	    -26.23600672	      0.11523978	     -8.04736485	     -0.19211386	     -0.00335302	     12.40287735	     22.93059479	      2.89284112	    -12.59988330	     -3.87463394	     -4.97256382	      0.08427467	      0.01168289	     -0.01374240	    -19.13482622	     -9.90212920	     35.85858874	     -0.02890480	     -0.03802118	     -0.00149312	      6.27948325	     28.25299028	    -14.22387660	    -24.06524835	     13.43807089	    -18.41397603	     49.02954940	     -0.01768652	     -0.04035797	      0.01317341	     22.98373318	     14.53220084	     -2.94644156	    -19.65149555	      7.06802499	      2.41463933	     -0.94446424	      0.01185240	      0.02313518	     -0.00121232
      8.73000000	     10.46110861	      2.95789081	      2.38048414	      0.60099502	      1.01461382	     -0.23534806	     22.84726475	     -8.48127692	    -11.03814520	     15.70447274	      0.27409476	      1.60314011	      2.85988935	     -1.86315350	    -26.78211786	      1.06408026	     -8.13585041	     -0.66232390	     -0.01155973	     13.44766743	     23.43789736	      2.77900339	    -12.02514836	     -4.61285466	     -5.39311184	      0.08445151	      0.01117363	     -0.01682671	    -20.78844725	     -9.54782982	     35.90527538	     -0.01858321	     -0.03927000	      0.00129452	      5.74478594	     28.14348525	    -14.10407918	    -23.55194852	     16.29896524	    -18.53608565	     48.43742480	     -0.03633094	     -0.04762478	      0.01235394	     24.28539650	     14.64320979	     -2.70361596	    -20.11936590	      7.29915603	      2.34207746	     -0.93180871	      0.01174155	      0.02297634	     -0.00183473
